<svg version="1.1" viewBox="0 0 5040 5040" xmlns="http://www.w3.org/2000/svg">
 
 <g id="glyph" transform="translate(720, 720)">
   <path fill="currentColor" d="m1882.7 1914.5c0 45.703-36.984 82.688-82.688 82.688-45.707 0-82.688-36.984-82.688-82.688v-1181.2c-64.406-15.469-122.06-48.516-167.34-93.797-63.984-63.984-103.64-152.44-103.64-249.89 0-97.594 39.516-186.05 103.64-250.03 63.984-63.984 152.44-103.64 250.03-103.64s186.05 39.656 249.89 103.64c63.984 63.984 103.64 152.44 103.64 250.03s-39.516 186.05-103.64 249.89c-45.281 45.422-102.8 78.469-167.2 93.797zm-597.38 1097.9c0-45.703 36.984-82.688 82.688-82.688 45.707 0 82.688 36.984 82.688 82.688v92.812c0 45.703-36.984 82.688-82.688 82.688-45.707 0-82.688-36.984-82.688-82.688zm0-406.98c0-45.703 36.984-82.688 82.688-82.688 45.707 0 82.688 36.984 82.688 82.688v92.812c0 45.703-36.984 82.688-82.688 82.688-45.707 0-82.688-36.984-82.688-82.688zm542.12 793.26v-1086.8h-792v955.84c0 36 14.766 68.625 38.531 92.391s56.531 38.531 92.531 38.531zm165.38-1086.8v1086.8h201.38v-1086.8zm366.88 0v1086.8h73.828c36 0 68.625-14.766 92.391-38.531 23.766-23.766 38.531-56.531 38.531-92.391v-955.84h-205.03zm370.26 0v955.84c0 81.703-33.328 155.67-87.047 209.39s-127.83 87.047-209.39 87.047h-1267.2c-81.703 0-155.67-33.328-209.39-87.047s-87.047-127.83-87.047-209.39v-955.84h-190.41c-45.703 0-82.688-36.984-82.688-82.688 0-45.562 36.984-82.688 82.688-82.688h2240.7c45.703 0 82.688 36.984 82.688 82.688 0 45.707-36.984 82.688-82.688 82.688h-190.41zm-1570.6-397.4c0 45.703-36.984 82.688-82.688 82.688-45.707 0-82.688-36.984-82.688-82.688v-124.59c0-49.641-15.047-95.203-41.625-132.05-26.719-36.844-65.25-65.391-112.36-81l-117.14-38.531c-14.344 23.203-31.359 44.578-50.625 63.844-63.984 63.984-152.44 103.64-250.03 103.64s-186.05-39.656-249.89-103.64c-63.984-63.984-103.64-152.44-103.64-250.03s39.656-186.05 103.64-249.89c63.984-63.984 152.44-103.64 249.89-103.64 97.594 0 186.05 39.516 250.03 103.64 63.984 63.984 103.64 152.44 103.64 249.89 0 9.8438-0.42188 19.547-1.125 29.109l117 38.531c80.859 26.719 147.66 76.5 194.34 141.05 46.828 64.688 73.266 143.72 73.266 228.8zm1446.9 0c0 45.703-36.984 82.688-82.688 82.688s-82.688-36.984-82.688-82.688v-124.59c0-85.078 26.297-164.11 73.266-228.8 46.828-64.547 113.48-114.33 194.34-141.05l117-38.531c-0.70312-9.5625-1.125-19.266-1.125-29.109 0-97.594 39.656-186.05 103.64-249.89 63.984-63.984 152.44-103.64 250.03-103.64s186.05 39.516 249.89 103.64c63.984 63.984 103.64 152.44 103.64 249.89 0 97.594-39.656 186.05-103.64 250.03-63.984 63.984-152.44 103.64-249.89 103.64-97.594 0-186.05-39.656-250.03-103.64-19.266-19.266-36.141-40.641-50.625-63.844l-117.14 38.531c-47.109 15.609-85.641 44.016-112.36 81-26.578 36.703-41.625 82.266-41.625 132.05v124.59zm-2050.9-695.23c-34.031-34.031-81.141-55.125-133.03-55.125s-99 21.094-132.89 55.125c-34.031 34.031-55.125 81-55.125 132.89s21.094 99 55.125 133.03 81.141 55.125 132.89 55.125c51.891 0 99-21.094 133.03-55.125s55.125-81.141 55.125-133.03-21.094-99-55.125-132.89zm2622.4-55.125c-51.891 0-99 21.094-133.03 55.125s-55.125 81-55.125 132.89 21.094 99 55.125 133.03 81.141 55.125 133.03 55.125 99-21.094 132.89-55.125c34.031-34.031 55.125-81.141 55.125-133.03s-21.094-99-55.125-132.89c-34.031-34.031-81.141-55.125-132.89-55.125zm-2213.7-924.62c97.594 0 186.05 39.516 249.89 103.64 63.984 63.984 103.64 152.44 103.64 249.89 0 97.594-39.656 186.05-103.64 250.03-31.922 31.922-70.172 57.938-112.36 75.797l7.1719 44.156c6.1875 37.547 20.25 70.875 40.781 98.438 20.812 27.703 48.797 50.484 83.109 66.938l27.281 13.219c68.906 33.188 124.03 82.688 162 143.02 38.25 60.75 59.062 131.91 59.062 207.84v422.17c0 45.703-36.984 82.688-82.688 82.688s-82.688-36.984-82.688-82.688v-422.17c0-44.859-11.672-85.781-33.188-119.95-21.797-34.594-53.578-63-93.516-82.125l-27.281-13.078c-58.641-28.125-107.3-67.781-143.72-116.72-36.703-49.078-61.172-106.59-71.859-170.72l-7.1719-43.875c-87.609-6.1875-166.36-44.156-224.72-102.66-63.984-63.984-103.64-152.44-103.64-250.03s39.656-186.05 103.64-249.89c63.984-63.984 152.44-103.64 250.03-103.64zm133.03 220.5c-34.031-34.031-81.141-55.125-133.03-55.125s-99 21.094-133.03 55.125-55.125 81.141-55.125 132.89c0 51.891 21.094 99 55.125 133.03s81.141 55.125 133.03 55.125 99-21.094 133.03-55.125 55.125-81.141 55.125-133.03-21.094-99-55.125-132.89zm1539-55.125c-51.891 0-99 21.094-133.03 55.125s-55.125 81.141-55.125 132.89c0 51.891 21.094 99 55.125 133.03s81.141 55.125 133.03 55.125 99-21.094 133.03-55.125 55.125-81.141 55.125-133.03-21.094-99-55.125-132.89c-34.031-34.031-81.141-55.125-133.03-55.125zm-249.89-61.734c63.984-63.984 152.44-103.64 249.89-103.64 97.594 0 186.05 39.516 250.03 103.64 63.984 63.984 103.64 152.44 103.64 249.89 0 97.594-39.656 186.05-103.64 250.03-58.359 58.359-137.11 96.469-224.72 102.66l-7.1719 43.875c-10.547 64.125-35.156 121.78-71.859 170.72-36.562 48.797-85.078 88.453-143.72 116.72l-27.281 13.078c-39.938 19.266-71.719 47.672-93.516 82.125-21.516 34.172-33.188 75.234-33.188 119.95v422.17c0 45.703-36.984 82.688-82.688 82.688s-82.688-36.984-82.688-82.688v-422.17c0-76.078 20.812-146.95 59.062-207.84 37.969-60.328 93.094-109.83 162-143.02l27.281-13.219c34.172-16.453 62.156-39.234 83.109-66.938 20.672-27.703 34.734-60.75 40.781-98.438l7.1719-44.156c-42.328-17.859-80.438-43.875-112.36-75.797-63.984-63.984-103.64-152.44-103.64-250.03s39.656-186.05 103.64-249.89zm-586.12 234.42c51.891 0 99-21.094 132.89-55.125 34.031-34.031 55.125-81.141 55.125-133.03s-21.094-99-55.125-133.03-81-55.125-132.89-55.125-99 21.094-133.03 55.125-55.125 81.141-55.125 133.03 21.094 99 55.125 133.03 81 55.125 133.03 55.125z"></path>
 </g>
</svg>